<svg width="888" height="488" viewBox="0 0 888 488" fill="none" xmlns="http://www.w3.org/2000/svg">
<path d="M612.561 22.6856L359 21L584.004 466L713 211.473L612.561 22.6856Z" fill="#82ACFF"/>
<path d="M207.348 210L71 469L525 468.454L389.146 210H207.348Z" fill="#46FFC8"/>
<path d="M51.7297 488H63.5263C75.8678 488 87.1093 480.903 92.4164 469.761L271.625 93.522C283.029 69.5797 316.935 69.1035 329.007 92.716L522.184 470.567C527.655 481.267 538.659 488 550.677 488H626.614C638.791 488 649.913 481.088 655.306 470.17L864.699 46.1696C875.202 24.9023 859.727 0 836.007 0H822.436C810.2 0 799.034 6.97866 793.672 17.9783L613.958 386.646C602.419 410.317 568.824 410.696 556.754 387.292L365.951 17.3322C360.462 6.68785 349.488 0 337.511 0H263.295C251.165 0 240.078 6.85867 234.662 17.7127L23.0963 441.713C12.4804 462.988 27.9529 488 51.7297 488Z" fill="#246EFF"/>
</svg>
